<?xml version="1.0" standalone="no"?>
<!DOCTYPE svg PUBLIC "-//W3C//DTD SVG 20010904//EN"
 "http://www.w3.org/TR/2001/REC-SVG-20010904/DTD/svg10.dtd">
<svg version="1.0" xmlns="http://www.w3.org/2000/svg"
 width="260.000000pt" height="260.000000pt" viewBox="0 0 260.000000 260.000000"
 preserveAspectRatio="xMidYMid meet">
<metadata>
Created by potrace 1.11, written by Peter Selinger 2001-2013
</metadata>
<g transform="translate(0.000000,260.000000) scale(0.100000,-0.100000)"
fill="#000000" stroke="none">
<path d="M0 1300 l0 -1300 1300 0 1300 0 0 1300 0 1300 -1300 0 -1300 0 0
-1300z m1067 90 c128 -283 233 -516 233 -517 0 -2 -46 -3 -102 -3 l-103 0 -50
118 -50 117 -260 3 -261 2 -49 -120 -50 -120 -103 0 c-57 0 -101 3 -99 8 3 4
107 234 232 512 125 278 229 509 232 513 2 4 48 6 101 5 l96 -3 233 -515z
m1048 492 c80 -30 124 -67 158 -133 25 -48 28 -62 24 -124 -5 -83 -29 -137
-84 -185 -23 -20 -33 -35 -25 -38 45 -15 109 -72 134 -121 53 -102 32 -252
-44 -317 -97 -81 -170 -94 -545 -94 l-303 0 0 521 0 520 313 -3 c294 -3 315
-5 372 -26z"/>
<path d="M703 1639 c-17 -41 -61 -140 -97 -221 l-65 -148 194 0 193 0 -89 203
c-49 111 -93 211 -97 221 -6 15 -14 4 -39 -55z"/>
<path d="M1620 1610 l0 -140 155 0 c189 0 248 11 292 55 29 29 33 40 33 85 0
45 -4 56 -33 85 -46 46 -89 55 -279 55 l-168 0 0 -140z"/>
<path d="M1620 1175 l0 -146 213 3 c195 3 215 5 252 25 49 26 70 62 70 119 0
52 -26 91 -81 119 -34 18 -63 20 -246 23 l-208 4 0 -147z"/>
</g>
</svg>
